<svg width="309" height="91" viewBox="0 0 309 91" fill="none" xmlns="http://www.w3.org/2000/svg">
<g clip-path="url(#clip0_301_305)">
<path d="M82.1577 83.8563C103.684 83.8563 121.135 66.498 121.135 45.0854C121.135 23.6728 103.684 6.31445 82.1577 6.31445C60.6312 6.31445 43.1806 23.6728 43.1806 45.0854C43.1806 66.498 60.6312 83.8563 82.1577 83.8563Z" fill="#F5F5F5"/>
<path d="M89.4725 72.7644C84.3536 72.7658 79.2845 71.7642 74.5547 69.8169C69.8249 67.8695 65.5271 65.0145 61.9066 61.4148C58.2861 57.8152 55.4138 53.5414 53.4539 48.8376C51.4939 44.1338 50.4845 39.092 50.4835 34.0001V34.0001C50.4779 28.717 51.5625 23.489 53.6702 18.6396C46.9193 25.8105 43.1684 35.2703 43.1807 45.0945V45.0945C43.1835 55.3752 47.291 65.234 54.6 72.5028C61.909 79.7717 71.821 83.8555 82.1564 83.8562V83.8562C89.7695 83.8564 97.216 81.6395 103.577 77.4792C109.939 73.3188 114.936 67.397 117.953 60.4444C114.312 64.3348 109.904 67.4367 105.004 69.5564C100.103 71.6762 94.8162 72.7683 89.4725 72.7644V72.7644Z" fill="#8BBFF7"/>
<path d="M122.351 45.6228C122.338 50.8043 121.3 55.9326 119.294 60.7147C117.289 65.4969 114.356 69.8393 110.664 73.4941C106.971 77.1489 102.591 80.0445 97.774 82.0155C92.9565 83.9865 87.7959 84.9944 82.5869 84.9815C82.1009 84.9815 81.6149 84.9815 81.1316 84.9525C73.5121 84.6535 66.1406 82.1768 59.8994 77.8189C53.6581 73.4609 48.8116 67.4062 45.9398 60.3796C43.068 53.3529 42.2927 45.652 43.7066 38.1984C45.1204 30.7448 48.6636 23.8543 53.9121 18.3518C50.5248 23.7608 48.3451 29.8305 47.5205 36.1501C46.6958 42.4697 47.2454 48.8917 49.1321 54.9817C49.1404 55.0051 49.1474 55.0289 49.1533 55.0531C49.8296 57.4077 50.7572 59.6835 51.9204 61.8418C55.5744 68.6576 61.4119 74.0645 68.5067 77.2048C75.6015 80.345 83.5474 81.0388 91.0837 79.1759C98.6199 77.313 105.315 73.0002 110.107 66.9217C114.899 60.8433 117.513 53.3472 117.534 45.6228C117.579 26.4982 101.978 10.9053 82.7621 10.8604C77.3946 10.8404 72.096 12.0631 67.2855 14.4317L86.1613 33.2077L90.4845 37.5081L94.7839 41.7847V49.7436C94.7842 49.7961 94.7688 49.8474 94.7396 49.8912C94.7105 49.9349 94.6689 49.969 94.6202 49.9891C94.5715 50.0092 94.5178 50.0145 94.4661 50.0041C94.4144 49.9938 94.3669 49.9684 94.3298 49.9312L86.1639 41.8085L81.8407 37.5081L51.9762 7.80417C51.8273 7.65623 51.7259 7.46765 51.685 7.26233C51.644 7.05701 51.6652 6.84421 51.746 6.65093C51.8268 6.45765 51.9635 6.2926 52.1388 6.17671C52.314 6.06082 52.5199 5.99932 52.7303 6.00001L58.8222 6.01321L65.4266 6.02906L82.7728 6.07133C93.2939 6.09582 103.374 10.2765 110.797 17.6938C118.219 25.1111 122.375 35.1574 122.351 45.6228Z" fill="#1B63F2"/>
<path d="M83.723 44.2335L73.5894 54.3136C73.5524 54.3506 73.5052 54.376 73.4537 54.3864C73.4022 54.3968 73.3488 54.3918 73.3002 54.372C73.2516 54.3522 73.21 54.3185 73.1806 54.2752C73.1513 54.2319 73.1355 54.1809 73.1353 54.1286V46.1645L79.3997 39.9331L83.723 44.2335Z" fill="#1B63F2"/>
<path d="M94.7834 25.2831V33.2341L86.1529 41.8164L81.8296 37.516L94.3267 25.085C94.3643 25.046 94.413 25.0194 94.4662 25.0088C94.5195 24.9982 94.5747 25.0041 94.6245 25.0257C94.6742 25.0473 94.7162 25.0835 94.7446 25.1295C94.773 25.1756 94.7866 25.2291 94.7834 25.2831Z" fill="#8BBFF7"/>
<path d="M160.403 52.5489L160.004 51.9995L145.33 31.7549H137.801L152.994 52.718L136.954 74.8487H144.483L156.759 57.9112L169.033 74.8487H176.565L160.403 52.5489Z" fill="#1E3040"/>
<path d="M175.717 31.7549L170.584 38.8342H163.056L168.186 31.7549H175.717Z" fill="#1B63F2"/>
<path d="M213.992 37.9017V31.8262H192.415H189.362H186.308V74.7615H192.415V56.3395H206.867V50.264H192.415V37.9017H213.992Z" fill="#1E3040"/>
<path d="M249.208 53.5632H242.12C240.049 53.5254 238.075 52.6804 236.624 51.2101C235.172 49.7397 234.359 47.7613 234.359 45.7007C234.359 43.64 235.172 41.6617 236.624 40.1913C238.075 38.7209 240.049 37.876 242.12 37.8382H257.039V31.7627H242.12C238.437 31.8131 234.922 33.3038 232.336 35.9122C229.749 38.5206 228.299 42.037 228.299 45.7007C228.299 49.3644 229.749 52.8808 232.336 55.4892C234.922 58.0976 238.437 59.5882 242.12 59.6387H248.897C249.372 59.6271 249.844 59.7099 250.286 59.8823C250.728 60.0547 251.131 60.3133 251.472 60.6427C251.812 60.9722 252.083 61.3659 252.268 61.8009C252.454 62.2359 252.55 62.7033 252.551 63.1757V63.9681C252.551 67.2093 249.778 68.6595 247.03 68.6595H229.562V74.735H247.03C253.669 74.735 258.659 70.1044 258.659 63.9681V63.1757C258.659 57.8821 254.532 53.719 249.208 53.5632Z" fill="#1E3040"/>
</g>
<defs>
<clipPath id="clip0_301_305">
<rect width="222" height="79" fill="white" transform="translate(43 6)"/>
</clipPath>
</defs>
</svg>
